<svg width="70" height="60" viewBox="0 0 70 60" fill="none" xmlns="http://www.w3.org/2000/svg">
    <path d="M67.0833 50.4167C67.0833 51.9638 66.4687 53.4475 65.3748 54.5415C64.2808 55.6354 62.7971 56.25 61.25 56.25H8.74996C7.20286 56.25 5.71913 55.6354 4.62517 54.5415C3.53121 53.4475 2.91663 51.9638 2.91663 50.4167V18.3333C2.91663 16.7862 3.53121 15.3025 4.62517 14.2085C5.71913 13.1146 7.20286 12.5 8.74996 12.5H20.4166L26.25 3.75H43.75L49.5833 12.5H61.25C62.7971 12.5 64.2808 13.1146 65.3748 14.2085C66.4687 15.3025 67.0833 16.7862 67.0833 18.3333V50.4167Z" stroke="#ACABB8" stroke-width="5.83333" stroke-linecap="round" stroke-linejoin="round"/>
    <path d="M35 44.5833C41.4433 44.5833 46.6666 39.36 46.6666 32.9167C46.6666 26.4733 41.4433 21.25 35 21.25C28.5566 21.25 23.3333 26.4733 23.3333 32.9167C23.3333 39.36 28.5566 44.5833 35 44.5833Z" stroke="#ACABB8" stroke-width="5.83333" stroke-linecap="round" stroke-linejoin="round"/>
</svg>